<?xml version="1.0" encoding="UTF-8" standalone="no"?>
<!-- Created with Inkscape (http://www.inkscape.org/) -->

<svg
   xmlns:dc="http://purl.org/dc/elements/1.1/"
   xmlns:cc="http://creativecommons.org/ns#"
   xmlns:rdf="http://www.w3.org/1999/02/22-rdf-syntax-ns#"
   xmlns:svg="http://www.w3.org/2000/svg"
   xmlns="http://www.w3.org/2000/svg"
   xmlns:sodipodi="http://sodipodi.sourceforge.net/DTD/sodipodi-0.dtd"
   xmlns:inkscape="http://www.inkscape.org/namespaces/inkscape"
   width="42.60675mm"
   height="41.555031mm"
   viewBox="0 0 42.60675 41.555031"
   version="1.1"
   id="svg8"
   inkscape:version="0.92.3 (2405546, 2018-03-11)"
   sodipodi:docname="only-logo-vector.svg">
  <defs
     id="defs2" />
  <sodipodi:namedview
     id="base"
     pagecolor="#ffffff"
     bordercolor="#666666"
     borderopacity="1.0"
     inkscape:pageopacity="0.0"
     inkscape:pageshadow="2"
     inkscape:zoom="1.18125"
     inkscape:cx="-208.58384"
     inkscape:cy="27.635991"
     inkscape:document-units="mm"
     inkscape:current-layer="g825"
     showgrid="false"
     inkscape:window-width="1853"
     inkscape:window-height="1025"
     inkscape:window-x="67"
     inkscape:window-y="511"
     inkscape:window-maximized="1" />
  <metadata
     id="metadata5">
    <rdf:RDF>
      <cc:Work
         rdf:about="">
        <dc:format>image/svg+xml</dc:format>
        <dc:type
           rdf:resource="http://purl.org/dc/dcmitype/StillImage" />
        <dc:title></dc:title>
      </cc:Work>
    </rdf:RDF>
  </metadata>
  <g
     inkscape:label="Layer 1"
     inkscape:groupmode="layer"
     id="layer1"
     transform="translate(-119.58375,-13.263048)">
    <g
       transform="matrix(0.35277777,0,0,-0.35277777,78.8114,291.79147)"
       inkscape:label="ink_ext_XXXXXX"
       id="g823">
      <g
         transform="matrix(0.1,0,0,0.1,-199.36509,81.904764)"
         id="g825">
        <path
           inkscape:connector-curvature="0"
           id="path831"
           style="fill:#1b1817;fill-opacity:1;fill-rule:evenodd;stroke:none;stroke-width:0.99999994"
           d="m 3753.2826,7076.2464 c -333.47,0 -603.88,-270.36 -603.88,-603.88 0,-266.81 173.03,-493.17 412.97,-573.02 30.18,-5.59 41.26,13.1 41.26,29.05 0,14.4 -0.56,61.97 -0.82,112.43 -168,-36.53 -203.45,71.25 -203.45,71.25 -27.47,69.8 -67.05,88.36 -67.05,88.36 -54.79,37.48 4.13,36.71 4.13,36.71 60.64,-4.25 92.57,-62.24 92.57,-62.24 53.86,-92.31 141.27,-65.62 175.73,-50.19 5.42,39.03 21.07,65.68 38.34,80.75 -134.13,15.27 -275.13,67.05 -275.13,298.44 0,65.93 23.59,119.8 62.22,162.09 -6.27,15.22 -26.94,76.63 5.85,159.81 0,0 50.71,16.23 166.11,-61.9 48.17,13.38 99.83,20.09 151.15,20.32 51.32,-0.23 103.02,-6.94 151.2801,-20.32 115.26,78.13 165.9,61.9 165.9,61.9 32.8699,-83.18 12.1899,-144.59 5.9199,-159.81 38.7201,-42.29 62.1501,-96.16 62.1501,-162.09 0,-231.94 -141.27,-283.01 -275.7401,-297.96 21.66,-18.74 40.9601,-55.49 40.9601,-111.83 0,-80.8 -0.6998,-145.83 -0.6998,-165.72 0,-16.07 10.8701,-34.9 41.48,-28.97 239.8101,79.94 412.6201,306.22 412.6201,572.94 -3e-4,333.52 -270.3703,603.88 -603.8704,603.88" />
        <path
           inkscape:connector-curvature="0"
           id="path833"
           style="fill:#1b1817;fill-opacity:1;fill-rule:nonzero;stroke:none;stroke-width:0.99999994"
           d="m 3378.1226,6209.2064 c -1.33,-3.01 -6.05,-3.9 -10.35,-1.84 -4.38,1.97 -6.84,6.06 -5.42,9.07 1.3,3.08 6.03,3.94 10.4,1.89 4.39,-1.98 6.89,-6.11 5.37,-9.12 v 0" />
        <path
           inkscape:connector-curvature="0"
           id="path835"
           style="fill:#1b1817;fill-opacity:1;fill-rule:nonzero;stroke:none;stroke-width:0.99999994"
           d="m 3402.5826,6181.9264 c -2.88,-2.67 -8.51,-1.43 -12.33,2.79 -3.95,4.21 -4.69,9.84 -1.77,12.55 2.97,2.66 8.43,1.41 12.39,-2.79 3.95,-4.26 4.72,-9.85 1.71,-12.55 v 0" />
        <path
           inkscape:connector-curvature="0"
           id="path837"
           style="fill:#1b1817;fill-opacity:1;fill-rule:nonzero;stroke:none;stroke-width:0.99999994"
           d="m 3426.3926,6147.1464 c -3.7,-2.57 -9.75,-0.1598 -13.49,5.21 -3.7,5.37 -3.7,11.81 0.08,14.39 3.75,2.58 9.71,0.2498 13.5,-5.07 3.69,-5.46 3.69,-11.9 -0.09,-14.53 v 0" />
        <path
           inkscape:connector-curvature="0"
           id="path839"
           style="fill:#1b1817;fill-opacity:1;fill-rule:nonzero;stroke:none;stroke-width:0.99999994"
           d="m 3459.0126,6113.5464 c -3.31,-3.65 -10.36,-2.67 -15.52,2.31 -5.28,4.87 -6.75,11.78 -3.43,15.43 3.35,3.66 10.44,2.63 15.64,-2.31 5.24,-4.86 6.84,-11.82 3.31,-15.43 v 0" />
        <path
           inkscape:connector-curvature="0"
           id="path841"
           style="fill:#1b1817;fill-opacity:1;fill-rule:nonzero;stroke:none;stroke-width:0.99999994"
           d="m 3504.0126,6094.0364 c -1.46,-4.73 -8.25,-6.88 -15.09,-4.87 -6.83,2.07 -11.3,7.61 -9.92,12.39 1.42,4.76 8.24,7 15.13,4.85 6.82,-2.06 11.3,-7.56 9.88,-12.37 v 0" />
        <path
           inkscape:connector-curvature="0"
           id="path843"
           style="fill:#1b1817;fill-opacity:1;fill-rule:nonzero;stroke:none;stroke-width:0.99999994"
           d="m 3553.4326,6090.4164 c 0.1701,-4.98 -5.6299,-9.11 -12.81,-9.2 -7.22,-0.1597 -13.06,3.87 -13.14,8.77 0,5.03 5.67,9.12 12.89,9.24 7.18,0.1403 13.06,-3.86 13.06,-8.81 v 0" />
        <path
           inkscape:connector-curvature="0"
           id="path845"
           style="fill:#1b1817;fill-opacity:1;fill-rule:nonzero;stroke:none;stroke-width:0.99999994"
           d="m 3599.4226,6098.2464 c 0.86,-4.86 -4.1299,-9.85 -11.26,-11.18 -7.01,-1.28 -13.5,1.72 -14.39,6.54 -0.87,4.98 4.2101,9.97 11.21,11.26 7.14,1.24 13.53,-1.68 14.44,-6.62 v 0" />
      </g>
    </g>
  </g>
</svg>
