<?xml version="1.0" encoding="UTF-8" standalone="no"?>
<svg
   xmlns:dc="http://purl.org/dc/elements/1.1/"
   xmlns:cc="http://creativecommons.org/ns#"
   xmlns:rdf="http://www.w3.org/1999/02/22-rdf-syntax-ns#"
   xmlns:svg="http://www.w3.org/2000/svg"
   xmlns="http://www.w3.org/2000/svg"
   id="svg2111"
   version="1.1"
   viewBox="0 0 125.78987 158.63953"
   height="158.63953mm"
   width="125.78987mm">
  <defs
     id="defs2105" />
  <metadata
     id="metadata2108">
    <rdf:RDF>
      <cc:Work
         rdf:about="">
        <dc:format>image/svg+xml</dc:format>
        <dc:type
           rdf:resource="http://purl.org/dc/dcmitype/StillImage" />
        <dc:title></dc:title>
      </cc:Work>
    </rdf:RDF>
  </metadata>
  <g
     transform="translate(-49.398917,-120.53281)"
     id="layer1">
    <g
       transform="translate(14.381252,110.55332)"
       id="g2705">
      <path
         id="path2711"
         d="m 96.346831,158.55325 c -0.291041,-0.0645 -1.18401,-0.24998 -1.984375,-0.41222 -5.996702,-1.21555 -10.609088,-2.60784 -13.49375,-4.07324 -2.134084,-1.0841 -8.898757,-6.62221 -11.042443,-9.04025 -4.953834,-5.58781 -8.616855,-10.1743 -10.839913,-13.57271 -1.380287,-2.11005 -3.696626,-5.59469 -5.147429,-7.74363 -4.008163,-5.93695 -4.583661,-7.46534 -5.65204,-15.01054 -0.611447,-4.3182 -1.374373,-7.29486 -2.336697,-9.116919 -0.760108,-1.439188 -0.832519,-1.789261 -0.832519,-4.024797 V 93.11044 l 1.288634,-1.308307 c 2.534415,-2.573107 5.502656,-3.537579 9.162799,-2.977277 4.619641,0.707187 8.164777,2.563048 10.276739,5.379826 2.000653,2.668318 4.111829,6.847738 4.916737,9.733478 1.412457,5.06393 1.980625,6.27774 3.772405,8.05919 2.811044,2.79483 6.083602,4.75746 8.419409,5.0493 1.805086,0.22553 4.827284,-0.68757 9.391402,-2.83743 6.566879,-3.09323 8.97781,-4.65711 10.57176,-6.8575 0.76853,-1.06091 0.96101,-1.52204 2.14277,-5.13335 0.33334,-1.01865 0.76346,-2.0981 0.95581,-2.398777 0.50199,-0.784722 0.0438,-1.231715 -2.02867,-1.97889 -5.547626,-2.000089 -8.841093,-3.839311 -12.320909,-6.880551 -1.008866,-0.881716 -2.332402,-1.900914 -2.941193,-2.264889 -1.040786,-0.622247 -1.202626,-0.644405 -2.710042,-0.371059 -0.92647,0.168 -3.921321,0.261292 -7.095194,0.221017 -4.726977,-0.05998 -5.731616,-5.29e-4 -7.211832,0.427614 -1.243217,0.359492 -2.636282,0.503984 -5.027084,0.521417 C 63.476453,89.516901 63.191158,89.4747 61.922571,88.80542 61.17933,88.4133 60.186,87.768325 59.715168,87.372148 56.628838,84.77517 55.893767,79.753815 57.990204,75.58871 c 0.540155,-1.073155 2.388513,-3.047823 3.299336,-3.524798 0.839361,-0.439552 4.064291,-1.255516 7.805208,-1.974858 3.349961,-0.644165 4.992166,-1.068686 8.863542,-2.291289 4.007847,-1.2657 5.640059,-1.501878 7.976176,-1.154131 3.277505,0.487881 8.864682,2.130526 13.785803,4.053062 0.982261,0.383744 2.530081,0.988256 3.439581,1.343362 1.73599,0.677796 5.81864,2.507974 7.2656,3.257028 0.4672,0.241859 0.9344,0.354788 1.03824,0.250955 0.24649,-0.246491 -1.56792,-5.604076 -2.4035,-7.097046 -0.35634,-0.636696 -1.57668,-2.170464 -2.71188,-3.408378 -1.13519,-1.237914 -3.24336,-3.895127 -4.68484,-5.904915 -2.811421,-3.919869 -3.504492,-4.58564 -6.004444,-5.76793 -1.938581,-0.916803 -4.549942,-3.460766 -5.591977,-5.447655 -1.019947,-1.944769 -1.436759,-4.684874 -1.00892,-6.632617 0.182764,-0.832038 0.562602,-1.891424 0.844082,-2.354191 1.150329,-1.891189 4.098372,-3.734575 6.441969,-4.028107 1.225931,-0.153545 1.318445,-0.215426 1.23081,-0.823261 -0.05212,-0.361482 -0.111649,-2.085989 -0.132292,-3.832239 -0.03513,-2.971562 0.0093,-3.270385 0.693812,-4.663649 0.90538,-1.842891 2.77478,-3.624368 4.98987,-4.755179 1.40273,-0.716097 1.97776,-0.859909 3.41135,-0.853159 1.80628,0.0085 2.79574,0.371041 4.45466,1.632201 1.65638,1.259226 9.65578,12.456123 11.55976,16.180411 0.55797,1.091407 2.4505,4.103429 4.20563,6.693385 7.08886,10.460691 7.80825,11.766163 8.63168,15.663907 0.9725,4.60334 4.54849,14.648355 8.05331,22.621875 1.11939,2.546615 2.27873,5.285052 2.57633,6.085417 0.29759,0.800364 1.1276,2.555782 1.84446,3.900929 0.71686,1.345147 1.67113,3.428741 2.12059,4.630208 0.7289,1.948456 0.81786,2.498956 0.8233,5.094902 0.006,2.93581 -0.30529,4.24998 -1.81837,7.67292 -0.67996,1.53822 -2.01652,4.78214 -2.67085,6.48229 -0.36403,0.94589 -0.82236,2.13651 -1.01852,2.64583 -0.59423,1.54299 -2.17095,6.10196 -2.79093,8.0698 -0.32094,1.01864 -0.7362,2.32833 -0.9228,2.91041 -0.18661,0.58209 -0.53063,1.77271 -0.76451,2.64584 -2.43211,9.07981 -3.67354,11.84248 -6.53411,14.541 -3.69704,3.48759 -6.95775,5.24434 -12.9374,6.97018 -0.50933,0.147 -2.29526,0.69856 -3.96875,1.2257 -1.67349,0.52713 -4.88818,1.39095 -7.14375,1.91958 -3.76922,0.8834 -4.47568,0.96694 -8.73125,1.03257 -2.546618,0.0393 -4.868337,0.0187 -5.159379,-0.0458 z"
         style="fill:#fdcd61;stroke-width:0.26458332" />
      <path
         id="path2709"
         d="m 97.934331,158.28381 c -7.639394,-1.10835 -14.414762,-3.01744 -17.673785,-4.97992 -1.938732,-1.16744 -6.729175,-5.09482 -9.053455,-7.42235 -4.401674,-4.40783 -10.686073,-12.33292 -13.621718,-17.17799 -0.509323,-0.8406 -1.971532,-3.03599 -3.249351,-4.87865 -3.907059,-5.6341 -4.817237,-8.04581 -5.60801,-14.85966 -0.484603,-4.17566 -1.404353,-7.73361 -2.524487,-9.765706 -0.691338,-1.254188 -0.788985,-1.6944 -0.788985,-3.5569 v -2.125567 l 1.449588,-1.404035 c 1.785364,-1.729261 2.719136,-1.934448 1.437143,-0.315799 -0.748575,0.945153 -0.854348,1.266952 -0.804437,2.447396 0.03735,0.883349 0.346274,1.961216 0.882447,3.078948 1.760907,3.670883 3.594901,8.567153 4.057253,10.831783 0.164163,0.80407 1.298916,3.79972 2.389835,6.30897 0.207765,0.47788 0.377754,1.02884 0.377754,1.22437 0,0.19553 0.197943,0.51891 0.439875,0.71863 0.24193,0.19972 0.654328,0.84678 0.916437,1.4379 0.262112,0.59113 0.731682,1.30551 1.043491,1.5875 0.311806,0.282 0.782825,0.93574 1.046707,1.45276 0.263885,0.51703 0.831294,1.29093 1.260914,1.71979 0.429618,0.42887 1.101696,1.29557 1.493507,1.92602 1.153906,1.85671 10.697797,11.15686 11.449259,11.15686 0.12346,0 0.9915,0.77391 1.928977,1.71979 0.937477,0.94589 1.806641,1.71979 1.931477,1.71979 0.124833,0 0.902178,0.57633 1.727435,1.28073 1.671772,1.42695 5.282531,3.48177 6.118209,3.48177 0.297894,0 0.541629,0.0978 0.541629,0.21742 0,0.11958 0.625078,0.49883 1.389062,0.84277 0.763985,0.34394 2.135037,0.9625 3.046786,1.37457 0.970748,0.43873 2.341319,0.81026 3.307291,0.89653 0.907262,0.081 2.081985,0.32888 2.610496,0.55077 1.34465,0.56456 14.231705,0.37846 16.236985,-0.23448 0.72761,-0.2224 2.0373,-0.55843 2.91042,-0.74674 0.87313,-0.18831 1.772,-0.49817 1.99749,-0.68858 0.22549,-0.19041 0.88033,-0.42037 1.45521,-0.51103 2.02036,-0.31862 7.64962,-3.81678 8.73187,-5.42619 0.25233,-0.37525 0.86484,-0.9605 1.36113,-1.30056 0.49629,-0.34006 1.03485,-0.86648 1.1968,-1.16982 0.16196,-0.30334 0.62536,-0.86112 1.02978,-1.23951 0.67466,-0.63124 3.35579,-5.82925 3.80754,-7.38181 0.10585,-0.3638 0.40815,-0.89959 0.67177,-1.19063 0.53427,-0.58985 1.30217,-2.61675 1.3081,-3.45281 0.002,-0.29832 0.1309,-0.66944 0.28618,-0.82472 0.15528,-0.15528 0.3522,-1.22089 0.43761,-2.36802 0.0854,-1.14714 0.30315,-2.32382 0.48387,-2.61486 0.18073,-0.29105 0.41154,-0.82683 0.51293,-1.19063 0.39496,-1.41728 1.67068,-3.6265 6.16416,-10.67478 1.29011,-2.0236 2.00676,-4.61642 1.84229,-6.66535 -0.10606,-1.321241 -0.44546,-2.321999 -1.60604,-4.735573 -0.80936,-1.683165 -1.95313,-3.631417 -2.54172,-4.329448 -0.98926,-1.1732 -1.27877,-1.334739 -3.82954,-2.136802 -1.51766,-0.47721 -2.97783,-0.831313 -3.24482,-0.786892 -0.26699,0.04442 -1.02122,-0.285972 -1.67607,-0.734208 -2.11702,-1.449078 -6.62175,-3.222416 -8.73125,-3.437152 -2.13989,-0.217831 -4.47328,-1.004742 -7.88735,-2.659925 -1.64592,-0.797957 -3.06726,-1.650161 -3.15854,-1.893787 -0.0913,-0.243626 -0.67623,-0.928089 -1.29987,-1.521031 l -1.13391,-1.078074 0.69463,-0.518618 0.69464,-0.51862 -0.73338,-2.239764 c -1.44368,-4.40902 -1.96884,-5.402511 -4.17362,-7.895574 -1.93344,-2.186242 -4.27097,-5.185056 -6.52027,-8.364871 -1.594847,-2.254605 -2.313016,-2.871142 -4.783761,-4.106775 -2.178966,-1.089711 -4.688152,-3.587168 -5.634612,-5.60827 -0.874839,-1.868162 -1.15875,-4.334381 -0.73433,-6.378811 0.265258,-1.277736 0.535501,-1.745302 1.684309,-2.914147 1.728711,-1.758857 3.494931,-2.74225 5.418103,-3.016681 1.696834,-0.242134 1.596869,0.04551 1.126887,-3.242503 -0.532323,-3.724159 0.320225,-6.476064 2.657254,-8.577258 1.39367,-1.253024 4.25785,-2.758614 5.69002,-2.991024 1.30071,-0.211077 3.46029,0.915733 5.23675,2.732384 2.45655,2.512131 8.0089,10.372759 10.35082,14.653971 0.83584,1.527969 3.14675,5.159375 5.13537,8.069792 4.12469,6.036641 5.25496,7.76577 6.0532,9.260417 0.85622,1.603203 1.63641,3.772802 1.63641,4.550603 0,0.767628 0.41307,2.266365 1.77205,6.429605 0.9782,2.996695 2.63371,7.741235 3.00044,8.598958 0.12443,0.291042 0.48173,1.184011 0.79399,1.984375 0.53041,1.359525 2.21755,5.299422 3.56895,8.334375 0.32399,0.727605 1.01509,2.409955 1.53579,3.738558 0.52071,1.328602 1.27949,2.998742 1.6862,3.711421 2.1382,3.746826 2.9804,6.186839 3.38381,9.803459 0.2774,2.48695 -0.52007,5.16441 -3.68726,12.3799 -0.37032,0.84366 -2.50254,6.70724 -3.80039,10.45104 -1.08761,3.13733 -1.69836,5.13513 -2.83103,9.26041 -2.16653,7.89072 -3.26631,10.26229 -5.91975,12.76542 -3.39493,3.20261 -6.90758,5.15845 -11.95299,6.65543 -1.2288,0.36459 -3.78199,1.12978 -5.67377,1.70043 -6.2352,1.88083 -10.33913,2.66647 -14.68437,2.81114 -1.67349,0.0557 -3.399896,0.0495 -3.836459,-0.0139 z M 140.2907,86.378749 c 0.14723,-0.383672 -0.61409,-2.848692 -1.46009,-4.727525 -0.77214,-1.714812 -1.92418,-4.825568 -3.06361,-8.272438 -0.33674,-1.018646 -0.87433,-2.506927 -1.19466,-3.307292 -1.45086,-3.625054 -2.17203,-6.111018 -2.39335,-8.250219 -0.26469,-2.558415 -0.65336,-3.580077 -2.24641,-5.904989 -0.59828,-0.873125 -1.65614,-2.659063 -2.35082,-3.96875 -0.69468,-1.309688 -2.12436,-3.690938 -3.17707,-5.291667 -1.05272,-1.600729 -2.14092,-3.485293 -2.41823,-4.18792 -0.27732,-0.702628 -0.71257,-1.391425 -0.96723,-1.530662 -0.25466,-0.13924 -0.46302,-0.379855 -0.46302,-0.534702 0,-0.345909 -1.81228,-3.345617 -2.44437,-4.045964 -0.253,-0.280312 -0.53694,-0.756562 -0.63098,-1.058333 -0.094,-0.301768 -0.28337,-0.621022 -0.42074,-0.709454 -0.33288,-0.214294 -2.06154,-2.631641 -3.29073,-4.601715 -0.54477,-0.873125 -1.0897,-1.628399 -1.21096,-1.678387 -0.12126,-0.04999 -0.51222,-0.666642 -0.86882,-1.370338 -0.35659,-0.703699 -0.76622,-1.352301 -0.91028,-1.441341 -0.14408,-0.08904 -0.3408,-0.75633 -0.43718,-1.482868 -0.16979,-1.279922 -0.2181,-1.341258 -1.55456,-1.973501 -1.71524,-0.81144 -3.49122,-0.858472 -4.6953,-0.124346 -0.47646,0.290499 -1.04819,0.528624 -1.27051,0.529166 -0.43409,0.0011 -1.06471,0.643615 -2.07276,2.111963 -0.85284,1.242277 -1.062687,4.409607 -0.46142,6.96446 0.47508,2.018628 1.7354,4.742188 2.65675,5.741234 0.33551,0.363802 0.82869,1.018646 1.09595,1.455208 0.26726,0.436563 0.75494,1.125577 1.08374,1.531146 0.3288,0.405567 0.97116,1.477129 1.42747,2.38125 1.16974,2.317711 1.55342,2.984675 2.92432,5.083437 0.66537,1.018646 1.37682,2.165657 1.58101,2.548914 0.38648,0.725432 4.47693,6.126507 6.15368,8.125389 0.56058,0.668271 1.14431,1.775666 1.39468,2.645833 0.23683,0.823092 0.66059,1.951911 0.94168,2.508483 0.2811,0.556575 0.46112,1.151887 0.40005,1.322917 -0.0611,0.171032 0.0926,0.727683 0.34153,1.237006 0.2489,0.509323 0.6626,1.81901 0.91934,2.910417 0.25673,1.091406 0.6409,2.520156 0.85371,3.175 0.21281,0.654843 0.47395,1.666875 0.58031,2.248958 0.10636,0.582083 0.61062,1.653646 1.12057,2.38125 0.81845,1.167786 1.5893,2.035667 4.41658,4.972529 0.8174,0.849085 2.06784,1.451187 5.6064,2.699557 1.38245,0.487714 3.28745,1.187233 4.23334,1.554485 2.03839,0.791432 2.09329,0.7995 2.27199,0.333809 z M 83.074723,119.71732 c -0.751221,-0.16557 -1.594035,-0.50939 -1.872917,-0.76406 -0.278881,-0.25466 -0.636989,-0.46302 -0.795792,-0.46302 -0.158806,0 -1.055833,-0.65484 -1.993398,-1.4552 -0.937564,-0.80037 -1.81778,-1.45521 -1.956035,-1.45521 -0.138256,0 -0.59358,-0.35719 -1.011833,-0.79375 -0.418253,-0.43657 -0.904444,-0.79375 -1.080426,-0.79375 -0.17598,0 -0.685848,-0.41672 -1.133041,-0.92604 -0.447191,-0.50933 -0.997858,-0.92605 -1.223706,-0.92605 -0.225846,0 -0.544589,-0.32742 -0.708319,-0.7276 -0.163729,-0.40018 -0.624805,-1.39782 -1.024614,-2.21698 -0.399807,-0.81915 -0.805882,-1.89071 -0.902383,-2.38125 -0.492591,-2.50391 -2.743007,-8.472637 -3.331641,-8.836433 -0.175803,-0.108652 -1.453185,-1.923839 -3.201954,-4.550043 -0.239387,-0.3595 -0.834699,-0.905941 -1.322916,-1.214315 -0.807159,-0.509829 -0.835687,-0.568897 -0.314534,-0.651272 0.712507,-0.112626 2.85392,1.388581 3.948626,2.768121 2.418715,3.048047 4.092011,6.754852 5.650828,12.518112 0.584562,2.16123 1.636797,4.08135 3.017684,5.50665 2.834952,2.92614 7.267966,5.32931 9.847492,5.3384 2.27248,0.008 12.900139,-4.68261 16.431516,-7.25221 2.87521,-2.09213 3.76116,-3.40216 5.0243,-7.4293 0.36514,-1.16417 0.86017,-2.5054 1.10006,-2.98052 0.55352,-1.096284 0.29708,-1.532836 -1.27593,-2.172064 -5.675892,-2.306524 -6.972057,-2.88625 -8.548982,-3.823624 -0.991158,-0.589176 -3.129462,-2.183233 -4.751787,-3.54235 -1.622324,-1.359114 -3.179024,-2.593858 -3.459331,-2.743874 -0.351597,-0.188169 -0.97032,-0.184568 -1.995088,0.01161 -2.800652,0.536138 -4.531143,0.604036 -7.525891,0.295275 -2.849663,-0.293799 -3.194521,-0.273225 -6.945712,0.414377 -6.403813,1.173837 -8.922808,0.884531 -11.41739,-1.311288 -2.545244,-2.240413 -3.324323,-4.680897 -2.605391,-8.161462 0.404259,-1.957149 1.284623,-3.899628 1.767374,-3.899628 0.322456,0 0.314031,0.04022 -0.284909,1.36017 -0.709631,1.563889 -0.715311,4.128262 -0.0122,5.506485 0.971172,1.90365 4.618649,3.716679 7.477273,3.716679 0.815393,0 3.129185,-0.229701 5.141759,-0.510448 2.012574,-0.280744 5.921415,-0.57994 8.686311,-0.664876 4.479226,-0.137602 5.268777,-0.09592 7.244839,0.382497 2.260216,0.547209 6.705621,2.711971 8.562152,4.169479 0.50749,0.398415 1.417593,1.022046 2.022454,1.385848 0.604859,0.363802 2.079429,1.306023 3.276819,2.093825 2.328,1.531662 5.86452,3.197841 6.78755,3.197841 0.87678,0 4.02915,1.70742 4.96237,2.687773 1.71771,1.804465 1.30934,3.044955 -1.23847,3.762055 -2.07103,0.58291 -3.06511,1.57884 -3.3031,3.30926 -0.29023,2.11019 -1.51751,4.1458 -3.80355,6.30869 -2.16209,2.04562 -4.10085,3.15538 -7.949621,4.55043 -1.223185,0.44336 -2.525898,1.00395 -2.89492,1.24574 -0.369023,0.24179 -1.094642,0.54892 -1.612488,0.68251 -0.517845,0.13359 -1.358254,0.3491 -1.867577,0.47892 -0.509323,0.12982 -1.81901,0.47706 -2.910417,0.77164 -2.213657,0.59748 -2.709452,0.61703 -4.67315,0.18422 z M 107.59649,75.605786 c -1.08873,-0.570005 -2.19379,-1.036375 -2.4557,-1.036375 -0.46748,0 -0.92654,-0.679567 -0.64754,-0.958575 0.0781,-0.0781 0.59883,0.0941 1.15717,0.382669 1.47725,0.763498 2.96619,1.369656 3.36438,1.369656 0.35037,0 1.22266,0.817107 1.22266,1.145312 0,0.35319 -0.6977,0.114716 -2.64097,-0.902687 z M 61.28954,73.316423 c 0,-0.646469 3.65434,-1.878806 6.879166,-2.319832 0.654844,-0.08956 2.060284,-0.347726 3.1232,-0.573714 1.981198,-0.421222 3.038107,-0.315434 1.202987,0.120411 -0.560393,0.133094 -1.554676,0.388139 -2.20952,0.566767 -1.835711,0.500743 -4.191966,1.057844 -6.089385,1.439741 -0.948069,0.190817 -1.989866,0.48936 -2.315105,0.663421 -0.325239,0.174064 -0.591343,0.220507 -0.591343,0.103206 z m 39.6875,-0.593979 c -0.80036,-0.400335 -2.169584,-0.946295 -3.042709,-1.213241 -1.863423,-0.569714 -2.756992,-1.178219 -1.710343,-1.164712 0.358606,0.0046 0.883126,0.183224 1.165601,0.396875 0.282474,0.213654 0.833442,0.388461 1.224372,0.388461 0.390933,0 0.859004,0.178594 1.040162,0.396875 0.181158,0.218282 0.543137,0.396875 0.804407,0.396875 0.47713,0 3.16434,1.247611 3.16434,1.469131 0,0.320791 -1.34637,-0.02029 -2.64583,-0.670264 z M 75.047873,69.596009 c 0.618011,-0.382273 2.290453,-0.650801 1.953271,-0.313619 -0.153533,0.153533 -0.745125,0.342141 -1.314649,0.419127 -0.696457,0.09415 -0.905552,0.0596 -0.638622,-0.105508 z m 18.390415,-0.05065 c -0.09269,-0.149982 0.01352,-0.194337 0.248968,-0.103984 0.458369,0.175892 0.542234,0.365538 0.161649,0.365538 -0.136932,0 -0.321712,-0.1177 -0.410617,-0.261554 z M 77.451171,68.904875 c 0.227131,-0.2231 3.325294,-1.176888 4.343577,-1.337194 l 1.058333,-0.166613 -0.709099,0.407924 c -0.965464,0.555408 -5.133488,1.528738 -4.692811,1.095883 z m 13.405556,-0.06694 c 0.181901,-0.0734 0.479557,-0.0734 0.661459,0 0.181901,0.0734 0.03307,0.133454 -0.33073,0.133454 -0.363802,0 -0.51263,-0.06006 -0.330729,-0.133454 z"
         style="fill:#eea232;stroke-width:0.26458332" />
      <path
         id="path2707"
         d="m 96.986242,158.06832 c -0.06064,-0.0602 -1.05233,-0.24028 -2.20377,-0.4002 -2.488491,-0.34562 -8.705244,-1.89377 -10.694493,-2.66324 -3.620616,-1.4005 -7.594603,-4.19218 -12.183898,-8.55906 -1.286815,-1.22445 -6.146792,-6.72193 -8.925621,-10.09643 -1.045755,-1.26992 -4.334754,-5.87304 -4.334754,-6.0667 0,-0.17725 -2.785808,-4.52037 -4.594087,-7.16224 -2.900405,-4.23745 -4.137163,-6.82506 -4.137163,-8.65599 0,-1.03145 0.447183,-0.70085 0.793951,0.58695 0.332227,1.23379 1.866858,3.87625 3.841047,6.61383 0.787058,1.09141 1.940157,2.81782 2.562442,3.83646 0.622286,1.01865 1.25173,2.03646 1.398764,2.2618 0.147037,0.22534 0.505463,0.79808 0.796505,1.27277 1.070922,1.74665 3.675147,5.00223 6.061792,7.57793 1.348396,1.45521 3.145059,3.47927 3.992586,4.49792 2.548975,3.06362 3.875246,4.3539 5.820622,5.66266 2.830729,1.90439 6.758511,4.17676 9.049247,5.23533 4.763543,2.20129 15.596907,3.89719 20.848668,3.26374 4.08386,-0.49258 10.2799,-2.22333 17.06563,-4.76698 1.23692,-0.46367 2.57649,-0.94318 2.9768,-1.06559 0.40031,-0.12241 1.65047,-0.72786 2.77812,-1.34544 3.7207,-2.03771 6.49965,-5.45315 8.62302,-10.59803 0.86641,-2.09929 2.61746,-7.43401 3.50333,-10.67319 0.40617,-1.48513 3.94777,-11.80617 4.92515,-14.353 0.3489,-0.90915 0.77753,-1.79616 0.95251,-1.97114 0.17498,-0.17499 0.31815,-0.5146 0.31815,-0.7547 0,-0.24011 0.38695,-0.96044 0.8599,-1.60073 0.47294,-0.6403 1.09802,-1.63433 1.38906,-2.20896 0.76033,-1.5012 1.19062,-1.51731 1.19062,-0.0446 0,1.10189 -0.16985,1.6661 -1.20416,3.99978 -0.19349,0.43656 -0.61003,1.44859 -0.92565,2.24895 -0.31562,0.80037 -0.72625,1.8124 -0.91251,2.24896 -0.18625,0.43656 -0.53043,1.24428 -0.76483,1.79492 -0.2344,0.55064 -0.42691,1.14595 -0.42781,1.32291 -7.9e-4,0.17697 -0.17556,0.65521 -0.38814,1.06277 -0.21258,0.40756 -0.50197,1.12193 -0.64308,1.5875 -0.14112,0.46557 -0.74876,2.2157 -1.35032,3.88919 -0.60156,1.67349 -1.19245,3.3999 -1.31308,3.83646 -0.12063,0.43656 -0.34132,1.15094 -0.4904,1.5875 -0.28186,0.82535 -0.9768,3.26361 -1.77213,6.21771 -1.44688,5.37408 -2.82633,8.66119 -4.38005,10.43728 -1.20702,1.37974 -5.67543,4.68872 -7.43535,5.50606 -1.74937,0.81244 -2.94446,1.23371 -6.96436,2.45496 -1.74625,0.53051 -3.65125,1.11877 -4.23334,1.30723 -2.78718,0.90243 -6.27732,1.70722 -10.86384,2.50511 -1.52566,0.26542 -8.372581,0.40029 -8.605078,0.16952 z M 86.028081,117.43191 c 0.08994,-0.14552 0.401646,-0.26458 0.692687,-0.26458 0.291042,0 0.455584,0.11906 0.365647,0.26458 -0.08994,0.14552 -0.401646,0.26458 -0.692687,0.26458 -0.291042,0 -0.455584,-0.11906 -0.365647,-0.26458 z m 2.630258,-0.93445 c 0.282474,-0.21366 0.758724,-0.38468 1.058333,-0.38005 0.535858,0.008 0.536366,0.0147 0.03115,0.39687 -0.282474,0.21366 -0.758724,0.38468 -1.058333,0.38005 -0.535858,-0.008 -0.536366,-0.0147 -0.03115,-0.39687 z m 1.999951,-0.78534 c 0.181157,-0.21828 0.582689,-0.39309 0.892291,-0.38846 0.551876,0.008 0.552842,0.016 0.04933,0.39687 -0.713097,0.53936 -1.3912,0.5333 -0.941617,-0.008 z m 1.5875,-0.61819 c 0,-0.12173 0.684609,-0.54895 1.521354,-0.94937 0.836745,-0.40043 1.699948,-0.83326 1.918229,-0.96186 0.218281,-0.12859 0.988629,-0.54306 1.711881,-0.92105 2.077452,-1.0857 4.525616,-2.93537 5.503486,-4.15806 1.05174,-1.31505 2.04505,-3.18915 2.04505,-3.85842 0,-0.25875 0.17481,-0.70157 0.38846,-0.98404 0.21365,-0.28248 0.39225,-0.8909 0.39688,-1.35205 0.005,-0.46115 0.2057,-1.18221 0.44684,-1.60237 0.55651,-0.969675 0.31256,-2.091066 -0.50519,-2.322206 -0.32709,-0.09245 -0.98165,-0.338513 -1.45459,-0.546801 -0.47295,-0.208291 -1.24685,-0.545841 -1.7198,-0.750113 -0.47294,-0.204274 -1.4035,-0.620993 -2.06791,-0.926041 -0.664404,-0.305052 -1.306587,-0.554638 -1.427068,-0.554638 -0.120481,0 -1.243751,-0.61635 -2.496153,-1.369666 -2.06492,-1.242044 -8.323527,-6.297687 -8.088069,-6.533465 0.431204,-0.431784 3.404849,1.384247 6.869308,4.195149 2.785197,2.259777 5.732652,4.054774 7.408332,4.511659 1.67508,0.456721 6.08025,2.142146 6.86249,2.625595 0.4507,0.278551 1.10279,0.808051 1.44909,1.176668 0.84122,0.895439 0.44617,1.355289 -1.37088,1.595719 -0.76145,0.10075 -1.87854,0.4015 -2.48242,0.66833 -0.98275,0.43423 -1.1424,0.63798 -1.52135,1.94152 -0.23287,0.80102 -0.42339,1.61842 -0.42339,1.81646 0,0.62377 -1.07227,2.42847 -2.07652,3.49493 -1.08271,1.14978 -4.245246,3.32026 -5.620886,3.85769 -0.495853,0.19371 -1.74172,0.7517 -2.768595,1.23997 -1.898983,0.90296 -2.498579,1.06289 -2.498579,0.66646 z m -42.734527,-3.75442 c -0.218249,-0.35314 -0.532725,-4.95542 -0.324948,-4.75552 0.190281,0.18307 0.782043,4.7948 0.63422,4.94262 -0.06582,0.0658 -0.204994,-0.0184 -0.309272,-0.1871 z m -0.987869,-6.16622 c -0.109141,-0.26656 -0.190892,-0.86187 -0.181666,-1.32292 0.01638,-0.81806 0.02302,-0.82256 0.276757,-0.18698 0.142994,0.3582 0.224742,0.95351 0.181666,1.32292 -0.06701,0.57469 -0.106966,0.60168 -0.276757,0.18698 z m -0.900885,-4.02467 c -0.08617,-0.22455 -0.09756,-0.4674 -0.02529,-0.53966 0.07225,-0.0722 0.194881,0.11148 0.272499,0.40829 0.164875,0.63048 -0.01831,0.72784 -0.2472,0.13137 z m -0.973246,-1.884766 c -0.09701,-0.09701 -0.172771,-0.364903 -0.168344,-0.595312 0.0066,-0.344038 0.05824,-0.332608 0.288835,0.06394 0.284898,0.489926 0.202303,0.854167 -0.120491,0.53137 z m -0.871109,-1.534673 c -0.278622,-0.726075 0.05174,-0.998135 0.368321,-0.303321 0.197715,0.43394 0.215532,0.691467 0.04784,0.691467 -0.146968,0 -0.33424,-0.174664 -0.41616,-0.388146 z M 62.70265,88.217445 c -1.989794,-0.95649 -2.330706,-1.611665 -0.412424,-0.792607 0.628655,0.268419 2.158476,0.473514 4.238662,0.568256 3.920214,0.178546 3.996348,0.628933 0.131762,0.779491 -2.335043,0.09097 -2.728772,0.03575 -3.958,-0.55514 z M 71.748566,87.8115 c -0.161827,-0.261843 0.94814,-0.62669 3.191095,-1.048915 0.714362,-0.134474 3.203837,-0.199614 5.53217,-0.144753 2.328334,0.05486 4.739349,0.104846 5.357813,0.111077 1.485199,0.01498 1.426879,0.383879 -0.132292,0.836846 -0.869185,0.252513 -2.31753,0.337857 -4.696354,0.276727 -1.891771,-0.04861 -4.21349,-0.108143 -5.159375,-0.132291 -0.945885,-0.02416 -2.218621,0.04565 -2.828301,0.155106 -0.649919,0.116679 -1.173149,0.09442 -1.264756,-0.0538 z m 48.543054,-7.64906 c -1.0914,-0.392845 -3.32896,-1.365501 -4.97233,-2.161458 -2.42994,-1.176922 -3.01388,-1.570728 -3.12673,-2.108655 -0.0763,-0.363802 -0.36886,-1.328526 -0.65006,-2.143831 -0.28121,-0.815306 -0.51129,-1.62551 -0.51129,-1.800453 0,-0.348395 -0.92358,-2.565881 -1.33257,-3.199466 -0.14091,-0.218281 -0.36349,-0.635 -0.49462,-0.926041 -0.13114,-0.291042 -0.99406,-1.365391 -1.9176,-2.387442 -2.0427,-2.260573 -3.86545,-4.57441 -5.87754,-7.461078 -2.020674,-2.898976 -2.808452,-3.641804 -4.892146,-4.612999 -2.228088,-1.038498 -3.522314,-2.060922 -4.767448,-3.766238 -1.694723,-2.321066 -2.508803,-4.739945 -1.912189,-5.681692 0.162055,-0.255799 0.366604,0.05265 0.699429,1.054687 0.504407,1.518629 1.855851,3.614428 2.993419,4.642149 0.385119,0.347935 1.52809,1.051505 2.539931,1.563489 1.011843,0.511982 2.012588,1.074204 2.223879,1.249376 0.211291,0.175173 2.033835,2.34256 4.050095,4.816414 2.01626,2.473855 4.38664,5.331355 5.26752,6.35 2.16047,2.498376 3.25163,4.190323 4.33551,6.722658 1.13935,2.661907 1.90981,3.728384 2.69352,3.728384 0.9165,0 1.20874,-1.406657 0.72746,-3.501533 -0.43996,-1.914996 -1.58588,-5.469813 -2.19759,-6.817217 -0.23122,-0.509323 -2.15737,-3.545417 -4.28033,-6.746875 -2.12296,-3.201458 -4.70379,-7.190052 -5.73519,-8.863542 -1.03139,-1.673489 -2.41477,-3.671892 -3.07417,-4.440896 -0.659396,-0.769003 -1.59065,-2.137672 -2.069451,-3.041481 -0.4788,-0.903811 -1.436095,-2.232101 -2.127318,-2.951755 -0.691224,-0.719653 -1.256771,-1.400627 -1.256771,-1.513271 0,-0.35919 0.925523,-0.716754 2.341422,-0.904579 0.756042,-0.100293 1.438508,-0.285718 1.516589,-0.412059 0.292544,-0.473345 0.630237,-0.195585 1.126688,0.926727 0.517621,1.170175 1.283001,2.389841 3.757241,5.987314 0.75063,1.091407 2.00329,3.154625 2.78367,4.584931 0.78039,1.430308 2.28661,3.794368 3.34716,5.253468 1.06055,1.459103 2.10687,2.908229 2.32515,3.220278 0.21828,0.31205 1.2599,1.720094 2.31472,3.128987 1.61614,2.15864 1.98252,2.845416 2.32895,4.365625 1.03903,4.559459 4.66616,14.988701 5.92355,17.032224 0.44542,0.723902 0.80986,1.373931 0.80986,1.444503 0,0.273947 -1.00725,0.05638 -2.91042,-0.628653 z M 98.082405,32.838163 c -0.318701,-1.147638 -0.327562,-3.861887 -0.01578,-4.835419 0.153993,-0.480846 0.223343,-0.155744 0.253981,1.190625 0.02318,1.018646 0.13588,2.421871 0.250442,3.118279 0.252653,1.535827 -0.102177,1.91816 -0.488641,0.526515 z"
         style="fill:#bd6625;stroke-width:0.26458332" />
    </g>
  </g>
</svg>
